<svg id="SvgjsSvg2874" width="750.5045072115385" height="804.7679813271882" xmlns="http://www.w3.org/2000/svg" version="1.1" xmlns:xlink="http://www.w3.org/1999/xlink" xmlns:svgjs="http://svgjs.com/svgjs"><defs id="SvgjsDefs2875"><pattern patternUnits="userSpaceOnUse" id="pattern_mark_0" width="300" height="300"><text x="150" y="100" fill="rgba(229,229,229,0.8)" font-size="18" transform="rotate(-45, 150, 150)" style="dominant-baseline: middle; text-anchor: middle;"></text></pattern><pattern patternUnits="userSpaceOnUse" id="pattern_mark_1" width="300" height="300"><text x="150" y="200" fill="rgba(229,229,229,0.8)" font-size="18" transform="rotate(-45, 150, 150)" style="dominant-baseline: middle; text-anchor: middle;"></text></pattern><pattern id="SvgjsPattern2987" x="0" y="0" width="78" height="53" patternUnits="userSpaceOnUse"><image id="SvgjsImage2988" xlink:href="https://iconsapi.com/5ee26548e4b0b788a9330ff2.svg" width="78" height="53" preserveAspectRatio="none" crossOrigin="anonymous" x="0" y="0"></image></pattern><pattern id="SvgjsPattern2991" x="0" y="0" width="29.21355096670674" height="36" patternUnits="userSpaceOnUse"><image id="SvgjsImage2992" xlink:href="https://iconsapi.com/5ee98326e4b01754b3cccbe0.svg" width="29.21355096670674" height="36" preserveAspectRatio="none" crossOrigin="anonymous" x="0" y="0"></image></pattern><pattern id="SvgjsPattern3011" x="0" y="0" width="39.84834250600954" height="42" patternUnits="userSpaceOnUse"><image id="SvgjsImage3012" xlink:href="https://iconsapi.com/604ed048e4b0547460c86e95.svg" width="39.84834250600954" height="42" preserveAspectRatio="none" crossOrigin="anonymous" x="0" y="0"></image></pattern><pattern id="SvgjsPattern3027" x="0" y="0" width="85" height="109.27403846153857" patternUnits="userSpaceOnUse"><image id="SvgjsImage3028" xlink:href="https://iconsapi.com/5ee271fbe4b0b788a9344f29.svg" width="85" height="109.27403846153857" preserveAspectRatio="none" crossOrigin="anonymous" x="0" y="0"></image></pattern><pattern id="SvgjsPattern3067" x="0" y="0" width="78" height="59" patternUnits="userSpaceOnUse"><image id="SvgjsImage3068" xlink:href="https://iconsapi.com/5ee84a0de4b01754b3cc81a9.svg" width="78" height="59" preserveAspectRatio="none" crossOrigin="anonymous" x="0" y="0"></image></pattern><pattern id="SvgjsPattern3117" x="0" y="0" width="45" height="42" patternUnits="userSpaceOnUse"><image id="SvgjsImage3118" xlink:href="https://iconsapi.com/5ee734c3e4b01754b3cb6631.svg" width="45" height="42" preserveAspectRatio="none" crossOrigin="anonymous" x="0" y="0"></image></pattern><pattern id="SvgjsPattern3121" x="0" y="0" width="45" height="42" patternUnits="userSpaceOnUse"><image id="SvgjsImage3122" xlink:href="https://iconsapi.com/5ee26552e4b0b788a93312a3.svg" width="45" height="42" preserveAspectRatio="none" crossOrigin="anonymous" x="0" y="0"></image></pattern><pattern id="SvgjsPattern3125" x="0" y="0" width="45" height="42" patternUnits="userSpaceOnUse"><image id="SvgjsImage3126" xlink:href="https://iconsapi.com/5ee7538be4b01754b3cbac0c.svg" width="45" height="42" preserveAspectRatio="none" crossOrigin="anonymous" x="0" y="0"></image></pattern><pattern id="SvgjsPattern3129" x="0" y="0" width="62" height="53" patternUnits="userSpaceOnUse"><image id="SvgjsImage3130" xlink:href="https://iconsapi.com/5ee26554e4b0b788a933130e.svg" width="62" height="53" preserveAspectRatio="none" crossOrigin="anonymous" x="0" y="0"></image></pattern><pattern id="SvgjsPattern3133" x="0" y="0" width="52" height="36" patternUnits="userSpaceOnUse"><image id="SvgjsImage3134" xlink:href="https://iconsapi.com/5ee27107e4b0b788a9343f05.svg" width="52" height="36" preserveAspectRatio="none" crossOrigin="anonymous" x="0" y="0"></image></pattern><pattern id="SvgjsPattern3137" x="0" y="0" width="52" height="36" patternUnits="userSpaceOnUse"><image id="SvgjsImage3138" xlink:href="https://iconsapi.com/5ee27107e4b0b788a9343f05.svg" width="52" height="36" preserveAspectRatio="none" crossOrigin="anonymous" x="0" y="0"></image></pattern><pattern id="SvgjsPattern3141" x="0" y="0" width="52" height="36" patternUnits="userSpaceOnUse"><image id="SvgjsImage3142" xlink:href="https://iconsapi.com/5ee27107e4b0b788a9343f05.svg" width="52" height="36" preserveAspectRatio="none" crossOrigin="anonymous" x="0" y="0"></image></pattern><pattern id="SvgjsPattern3145" x="0" y="0" width="52" height="42" patternUnits="userSpaceOnUse"><image id="SvgjsImage3146" xlink:href="https://cdn.processon.com/635fc3ba76213117c8fee6f0-65b9158aea71e5432979864f.svg?e=1706632090&amp;token=trhI0BY8QfVrIGn9nENop6JAc6l5nZuxhjQ62UfM:OmHhaTwUoMTYnIWdwvg4ovBkHGA=" width="52" height="42" preserveAspectRatio="none" crossOrigin="anonymous" x="0" y="0"></image></pattern><pattern id="SvgjsPattern3155" x="0" y="0" width="52" height="53" patternUnits="userSpaceOnUse"><image id="SvgjsImage3156" xlink:href="https://cdn.processon.com/635fc3ba76213117c8fee6f0-65b9175e67d2da5ab73695f7.svg?e=1706632559&amp;token=trhI0BY8QfVrIGn9nENop6JAc6l5nZuxhjQ62UfM:el_J8pn1YUmyk__xCGt4Y746UJU=" width="52" height="53" preserveAspectRatio="none" crossOrigin="anonymous" x="0" y="0"></image></pattern><pattern id="SvgjsPattern3165" x="0" y="0" width="71" height="53" patternUnits="userSpaceOnUse"><image id="SvgjsImage3166" xlink:href="https://cdn.processon.com/635fc3ba76213117c8fee6f0-65b917cb16faec666752f8d7.svg?e=1706632667&amp;token=trhI0BY8QfVrIGn9nENop6JAc6l5nZuxhjQ62UfM:-3u0xkFjpcIjsVNmePd2YwD-Y4E=" width="71" height="53" preserveAspectRatio="none" crossOrigin="anonymous" x="0" y="0"></image></pattern><pattern id="SvgjsPattern3175" x="0" y="0" width="78" height="74" patternUnits="userSpaceOnUse"><image id="SvgjsImage3176" xlink:href="https://iconsapi.com/5ee734cee4b01754b3cb668d.svg" width="78" height="74" preserveAspectRatio="none" crossOrigin="anonymous" x="0" y="0"></image></pattern><pattern id="SvgjsPattern3185" x="0" y="0" width="62" height="59" patternUnits="userSpaceOnUse"><image id="SvgjsImage3186" xlink:href="https://cdn.processon.com/635fc3ba76213117c8fee6f0-65b91bc216faec666752f8fd.svg?e=1706633682&amp;token=trhI0BY8QfVrIGn9nENop6JAc6l5nZuxhjQ62UfM:Optv05V1YzjuW1fd3OeVh3erYac=" width="62" height="59" preserveAspectRatio="none" crossOrigin="anonymous" x="0" y="0"></image></pattern><pattern id="SvgjsPattern3219" x="0" y="0" width="52" height="53" patternUnits="userSpaceOnUse"><image id="SvgjsImage3220" xlink:href="https://iconsapi.com/5ee8551ae4b01754b3ccb768.svg" width="52" height="53" preserveAspectRatio="none" crossOrigin="anonymous" x="0" y="0"></image></pattern><pattern id="SvgjsPattern3223" x="0" y="0" width="78" height="68" patternUnits="userSpaceOnUse"><image id="SvgjsImage3224" xlink:href="https://cdn.processon.com/635fc3ba76213117c8fee6f0-65b9b32d293e510df6cc471e.svg?e=1706672446&amp;token=trhI0BY8QfVrIGn9nENop6JAc6l5nZuxhjQ62UfM:fLqVxWMZCrB6WjpI8UOiy7BTuEQ=" width="78" height="68" preserveAspectRatio="none" crossOrigin="anonymous" x="0" y="0"></image></pattern><pattern id="SvgjsPattern3233" x="0" y="0" width="71" height="59" patternUnits="userSpaceOnUse"><image id="SvgjsImage3234" xlink:href="https://cdn.processon.com/635fc3ba76213117c8fee6f0-65b9b6de498763371ee872e4.svg?e=1706673390&amp;token=trhI0BY8QfVrIGn9nENop6JAc6l5nZuxhjQ62UfM:FcvMD-iwzTCuzwOC2XYER1iTBvk=" width="71" height="59" preserveAspectRatio="none" crossOrigin="anonymous" x="0" y="0"></image></pattern><pattern id="SvgjsPattern3249" x="0" y="0" width="52" height="36" patternUnits="userSpaceOnUse"><image id="SvgjsImage3250" xlink:href="https://iconsapi.com/5ee27e1de4b0b788a934fa25.svg" width="52" height="36" preserveAspectRatio="none" crossOrigin="anonymous" x="0" y="0"></image></pattern><pattern id="SvgjsPattern3263" x="0" y="0" width="133" height="33.43224586925271" patternUnits="userSpaceOnUse"><image id="SvgjsImage3264" xlink:href="https://cdn.processon.com/635fc3ba76213117c8fee6f0-65b9181b27c33615afa6b5e3.svg?e=1706632748&amp;token=trhI0BY8QfVrIGn9nENop6JAc6l5nZuxhjQ62UfM:phcsqQ0p4-FQLXws7J4sothf7qQ=" width="133" height="33.43224586925271" preserveAspectRatio="none" crossOrigin="anonymous" x="0" y="0"></image></pattern><pattern id="SvgjsPattern3267" x="0" y="0" width="62" height="59" patternUnits="userSpaceOnUse"><image id="SvgjsImage3268" xlink:href="https://cdn.processon.com/635fc3ba76213117c8fee6f0-65ba03f921db3620e31b101c.svg?e=1706693129&amp;token=trhI0BY8QfVrIGn9nENop6JAc6l5nZuxhjQ62UfM:u-2lOukkiN4GGPtGCE8AWd3WjCQ=" width="62" height="59" preserveAspectRatio="none" crossOrigin="anonymous" x="0" y="0"></image></pattern><pattern id="SvgjsPattern3279" x="0" y="0" width="78" height="68" patternUnits="userSpaceOnUse"><image id="SvgjsImage3280" xlink:href="https://cdn.processon.com/635fc3ba76213117c8fee6f0-65ba07b6293e510df6cc56bd.svg?e=1706694087&amp;token=trhI0BY8QfVrIGn9nENop6JAc6l5nZuxhjQ62UfM:STZrtEsufOS9jqhNNsrpl_nK4PM=" width="78" height="68" preserveAspectRatio="none" crossOrigin="anonymous" x="0" y="0"></image></pattern><pattern id="SvgjsPattern3289" x="0" y="0" width="112" height="93.71210922537864" patternUnits="userSpaceOnUse"><image id="SvgjsImage3290" xlink:href="https://cdn.processon.com/635fc3ba76213117c8fee6f0-65ba07be21db3620e31b10bc.svg?e=1706694095&amp;token=trhI0BY8QfVrIGn9nENop6JAc6l5nZuxhjQ62UfM:skmDdrgf-FY52dcBNfiIn2wOhyM=" width="112" height="93.71210922537864" preserveAspectRatio="none" crossOrigin="anonymous" x="0" y="0"></image></pattern></defs><rect id="svgbackgroundid" width="750.5045072115385" height="804.7679813271882" fill="transparent"></rect><rect id="SvgjsRect2877" width="750.5045072115385" height="804.7679813271882" fill="url(#pattern_mark_0)"></rect><rect id="SvgjsRect2878" width="750.5045072115385" height="804.7679813271882" fill="url(#pattern_mark_1)"></rect><g id="SvgjsG2879" transform="translate(35.11989182692321,154.40995849064984)"><path id="SvgjsPath2880" d="M 0 4Q 0 0 4 0L 686.3846153846152 0Q 690.3846153846152 0 690.3846153846152 4L 690.3846153846152 621.3580228365383Q 690.3846153846152 625.3580228365383 686.3846153846152 625.3580228365383L 4 625.3580228365383Q 0 625.3580228365383 0 621.3580228365383Z" stroke-dasharray="10,6" stroke="rgba(33,41,48,1)" stroke-width="2" fill-opacity="1" fill="#ffffff"></path><g id="SvgjsG2881"><text id="SvgjsText2882" font-family="微软雅黑" text-anchor="middle" font-size="13px" width="671px" fill="#323232" font-weight="400" align="middle" lineHeight="125%" anchor="middle" family="微软雅黑" size="13px" weight="400" font-style="" opacity="1" y="302.05401141826917" transform="rotate(0)"></text></g></g><g id="SvgjsG2883" transform="translate(185,611.2613693901023)"><path id="SvgjsPath2884" d="M 0 0L 397 0L 397 74L 0 74Z" stroke="rgba(33,41,48,1)" stroke-width="2" fill-opacity="1" fill="#ded9d7"></path><g id="SvgjsG2885"><text id="SvgjsText2886" font-family="微软雅黑" text-anchor="middle" font-size="13px" width="377px" fill="#323232" font-weight="400" align="middle" lineHeight="125%" anchor="middle" family="微软雅黑" size="13px" weight="400" font-style="" opacity="1" y="26.375" transform="rotate(0)"></text></g></g><g id="SvgjsG2887" transform="translate(39.15835336538487,37.88321570218818)"><path id="SvgjsPath2888" d="M 0 0L 686.3461538461536 0L 686.3461538461536 101L 0 101Z" stroke-dasharray="10,6" stroke="rgba(33,41,48,1)" stroke-width="2" fill-opacity="1" fill="#efeceb"></path><g id="SvgjsG2889"><text id="SvgjsText2890" font-family="微软雅黑" text-anchor="middle" font-size="13px" width="667px" fill="#323232" font-weight="400" align="middle" lineHeight="125%" anchor="middle" family="微软雅黑" size="13px" weight="400" font-style="" opacity="1" y="39.875" transform="rotate(0)"></text></g></g><g id="SvgjsG2891" transform="translate(136.9478245192305,51.38321570218818)"><path id="SvgjsPath2892" d="M 0 4Q 0 0 4 0L 164.8021754807695 0Q 168.8021754807695 0 168.8021754807695 4L 168.8021754807695 70Q 168.8021754807695 74 164.8021754807695 74L 4 74Q 0 74 0 70Z" stroke-dasharray="10,6,3,6" stroke="rgba(33,41,48,1)" stroke-width="1.5" fill-opacity="1" fill="#efeceb"></path><g id="SvgjsG2893"><text id="SvgjsText2894" font-family="微软雅黑" text-anchor="middle" font-size="13px" width="149px" fill="#323232" font-weight="400" align="middle" lineHeight="125%" anchor="middle" family="微软雅黑" size="13px" weight="400" font-style="" opacity="1" y="26.375" transform="rotate(0)"></text></g></g><g id="SvgjsG2895" transform="translate(176.24999999999994,169.88321570218818)"><path id="SvgjsPath2896" d="M 0 0L 397 0L 397 101L 0 101Z" stroke="rgba(33,41,48,1)" stroke-width="2" fill-opacity="1" fill="#ffffff"></path><g id="SvgjsG2897"><text id="SvgjsText2898" font-family="微软雅黑" text-anchor="middle" font-size="13px" width="377px" fill="#323232" font-weight="400" align="middle" lineHeight="125%" anchor="middle" family="微软雅黑" size="13px" weight="400" font-style="" opacity="1" y="39.875" transform="rotate(0)"></text></g></g><g id="SvgjsG2899" transform="translate(306.875,25)"><path id="SvgjsPath2900" d="M 0 0L 133 0L 133 42L 0 42Z" stroke="none" fill="none"></path><g id="SvgjsG2901"><text id="SvgjsText2902" font-family="微软雅黑" text-anchor="middle" font-size="14px" width="133px" fill="#323232" font-weight="700" align="middle" lineHeight="125%" anchor="middle" family="微软雅黑" size="14px" weight="700" font-style="" opacity="1" y="9.25" transform="rotate(0)"><tspan id="SvgjsTspan2903" dy="17.5" x="66.5"><tspan id="SvgjsTspan2904" style="">openim-sdk-core</tspan></tspan></text></g></g><g id="SvgjsG2905" transform="translate(324.25,163.38321570218818)"><path id="SvgjsPath2906" d="M 0 0L 100 0L 100 42L 0 42Z" stroke="none" fill="none"></path><g id="SvgjsG2907"><text id="SvgjsText2908" font-family="微软雅黑" text-anchor="middle" font-size="14px" width="100px" fill="#323232" font-weight="700" align="middle" lineHeight="125%" anchor="middle" family="微软雅黑" size="14px" weight="700" font-style="" opacity="1" y="9.25" transform="rotate(0)"><tspan id="SvgjsTspan2909" dy="17.5" x="50"><tspan id="SvgjsTspan2910" style="">access layer</tspan></tspan></text></g></g><g id="SvgjsG2911" transform="translate(205.5,193.88321570218818)"><path id="SvgjsPath2912" d="M 0 0L 100 0L 100 53L 0 53Z" stroke="rgba(33,41,48,1)" stroke-width="2" fill-opacity="1" fill="#c8e6c9"></path><g id="SvgjsG2913"><text id="SvgjsText2914" font-family="微软雅黑" text-anchor="middle" font-size="13px" width="80px" fill="#323232" font-weight="400" align="middle" lineHeight="125%" anchor="middle" family="微软雅黑" size="13px" weight="400" font-style="" opacity="1" y="15.875" transform="rotate(0)"><tspan id="SvgjsTspan2915" dy="16.25" x="50"><tspan id="SvgjsTspan2916" style="">API</tspan></tspan></text></g></g><g id="SvgjsG2917" transform="translate(325.75,193.88321570218818)"><path id="SvgjsPath2918" d="M 0 0L 100 0L 100 53L 0 53Z" stroke="rgba(33,41,48,1)" stroke-width="2" fill-opacity="1" fill="#c8e6c9"></path><g id="SvgjsG2919"><text id="SvgjsText2920" font-family="微软雅黑" text-anchor="middle" font-size="12px" width="80px" fill="#323232" font-weight="400" align="middle" lineHeight="125%" anchor="middle" family="微软雅黑" size="12px" weight="400" font-style="" opacity="1" y="9" transform="rotate(0)"><tspan id="SvgjsTspan2921" dy="15" x="50"><tspan id="SvgjsTspan2922" style="">MsgGateway</tspan></tspan><tspan id="SvgjsTspan2923" dy="15" x="50"><tspan id="SvgjsTspan2924" style="">(proxy)</tspan></tspan></text></g></g><g id="SvgjsG2925" transform="translate(176.25,381.80824358265727)"><path id="SvgjsPath2926" d="M 0 0L 397 0L 397 126.54333898720733L 0 126.54333898720733Z" stroke="rgba(33,41,48,1)" stroke-width="1.5" fill-opacity="1" fill="#ffffff"></path><g id="SvgjsG2927"><text id="SvgjsText2928" font-family="微软雅黑" text-anchor="middle" font-size="13px" width="377px" fill="#323232" font-weight="400" align="middle" lineHeight="125%" anchor="middle" family="微软雅黑" size="13px" weight="400" font-style="" opacity="1" y="52.64666949360367" transform="rotate(0)"></text></g></g><g id="SvgjsG2929" transform="translate(199.5,402.3832157021882)"><path id="SvgjsPath2930" d="M 0 0L 112 0L 112 24L 0 24Z" stroke="rgba(33,41,48,1)" stroke-width="2" fill-opacity="1" fill="#c8e6c9"></path><g id="SvgjsG2931"><text id="SvgjsText2932" font-family="微软雅黑" text-anchor="middle" font-size="13px" width="92px" fill="#323232" font-weight="400" align="middle" lineHeight="125%" anchor="middle" family="微软雅黑" size="13px" weight="400" font-style="" opacity="1" y="1.375" transform="rotate(0)"><tspan id="SvgjsTspan2933" dy="16.25" x="56"><tspan id="SvgjsTspan2934" style="">openim-push</tspan></tspan></text></g></g><g id="SvgjsG2935" transform="translate(176.25000000000006,280.8832157021882)"><path id="SvgjsPath2936" d="M 0 0L 397 0L 397 101L 0 101Z" stroke="rgba(33,41,48,1)" stroke-width="1.5" fill-opacity="1" fill="#ffffff"></path><g id="SvgjsG2937"><text id="SvgjsText2938" font-family="微软雅黑" text-anchor="middle" font-size="13px" width="377px" fill="#323232" font-weight="400" align="middle" lineHeight="125%" anchor="middle" family="微软雅黑" size="13px" weight="400" font-style="" opacity="1" y="39.875" transform="rotate(0)"></text></g></g><g id="SvgjsG2939" transform="translate(325.75000000000006,266.2473507930954)"><path id="SvgjsPath2940" d="M 0 0L 100 0L 100 42L 0 42Z" stroke="none" fill="none"></path><g id="SvgjsG2941"><text id="SvgjsText2942" font-family="微软雅黑" text-anchor="middle" font-size="14px" width="100px" fill="#323232" font-weight="700" align="middle" lineHeight="125%" anchor="middle" family="微软雅黑" size="14px" weight="700" font-style="" opacity="1" y="9.25" transform="rotate(0)"><tspan id="SvgjsTspan2943" dy="17.5" x="50"><tspan id="SvgjsTspan2944" style="">service layer</tspan></tspan></text></g></g><g id="SvgjsG2945" transform="translate(194.25000000000006,304.8832157021882)"><path id="SvgjsPath2946" d="M 0 0L 78 0L 78 53L 0 53Z" stroke="rgba(33,41,48,1)" stroke-width="2" fill-opacity="1" fill="#c8e6c9"></path><g id="SvgjsG2947"><text id="SvgjsText2948" font-family="微软雅黑" text-anchor="middle" font-size="13px" width="58px" fill="#323232" font-weight="400" align="middle" lineHeight="125%" anchor="middle" family="微软雅黑" size="13px" weight="400" font-style="" opacity="1" y="7.375" transform="rotate(0)"><tspan id="SvgjsTspan2949" dy="16.25" x="39"><tspan id="SvgjsTspan2950" style="">User </tspan></tspan><tspan id="SvgjsTspan2951" dy="16.25" x="39"><tspan id="SvgjsTspan2952" style="">Service</tspan></tspan></text></g></g><g id="SvgjsG2953" transform="translate(288.25000000000006,304.8832157021882)"><path id="SvgjsPath2954" d="M 0 0L 78 0L 78 53L 0 53Z" stroke="rgba(33,41,48,1)" stroke-width="2" fill-opacity="1" fill="#c8e6c9"></path><g id="SvgjsG2955"><text id="SvgjsText2956" font-family="微软雅黑" text-anchor="middle" font-size="13px" width="58px" fill="#323232" font-weight="400" align="middle" lineHeight="125%" anchor="middle" family="微软雅黑" size="13px" weight="400" font-style="" opacity="1" y="-0.625" transform="rotate(0)"><tspan id="SvgjsTspan2957" dy="16.25" x="39"><tspan id="SvgjsTspan2958" style="">Friend &amp; </tspan></tspan><tspan id="SvgjsTspan2959" dy="16.25" x="39"><tspan id="SvgjsTspan2960" style="">Group </tspan></tspan><tspan id="SvgjsTspan2961" dy="16.25" x="39"><tspan id="SvgjsTspan2962" style="">service</tspan></tspan></text></g></g><g id="SvgjsG2963" transform="translate(381.2500000000001,304.8832157021882)"><path id="SvgjsPath2964" d="M 0 0L 78 0L 78 53L 0 53Z" stroke="rgba(33,41,48,1)" stroke-width="2" fill-opacity="1" fill="#c8e6c9"></path><g id="SvgjsG2965"><text id="SvgjsText2966" font-family="微软雅黑" text-anchor="middle" font-size="13px" width="58px" fill="#323232" font-weight="400" align="middle" lineHeight="125%" anchor="middle" family="微软雅黑" size="13px" weight="400" font-style="" opacity="1" y="-0.625" transform="rotate(0)"><tspan id="SvgjsTspan2967" dy="16.25" x="39"><tspan id="SvgjsTspan2968" style="">Notifacat</tspan></tspan><tspan id="SvgjsTspan2969" dy="16.25" x="39"><tspan id="SvgjsTspan2970" style="">ion </tspan></tspan><tspan id="SvgjsTspan2971" dy="16.25" x="39"><tspan id="SvgjsTspan2972" style="">Service</tspan></tspan></text></g></g><g id="SvgjsG2973" transform="translate(479.5,304.8832157021882)"><path id="SvgjsPath2974" d="M 0 0L 78 0L 78 53L 0 53Z" stroke="rgba(33,41,48,1)" stroke-width="2" fill-opacity="1" fill="#c8e6c9"></path><g id="SvgjsG2975"><text id="SvgjsText2976" font-family="微软雅黑" text-anchor="middle" font-size="13px" width="58px" fill="#323232" font-weight="400" align="middle" lineHeight="125%" anchor="middle" family="微软雅黑" size="13px" weight="400" font-style="" opacity="1" y="7.375" transform="rotate(0)"><tspan id="SvgjsTspan2977" dy="16.25" x="39"><tspan id="SvgjsTspan2978" style="">Account </tspan></tspan><tspan id="SvgjsTspan2979" dy="16.25" x="39"><tspan id="SvgjsTspan2980" style="">Service</tspan></tspan></text></g></g><g id="SvgjsG2981" transform="translate(185,690.3832157021882)"><path id="SvgjsPath2982" d="M 0 0L 397 0L 397 68L 0 68Z" stroke="rgba(33,41,48,1)" stroke-width="2" fill-opacity="1" fill="#e5f6da"></path><g id="SvgjsG2983"><text id="SvgjsText2984" font-family="微软雅黑" text-anchor="middle" font-size="13px" width="377px" fill="#323232" font-weight="400" align="middle" lineHeight="125%" anchor="middle" family="微软雅黑" size="13px" weight="400" font-style="" opacity="1" y="23.375" transform="rotate(0)"></text></g></g><g id="SvgjsG2985" transform="translate(237.5,690.8832157021882)"><path id="SvgjsPath2986" d="M 0 0L 78 0L 78 53L 0 53Z" stroke="none" fill="url(#SvgjsPattern2987)"></path></g><g id="SvgjsG2989" transform="translate(240.89322451664663,639.3832157021882)"><path id="SvgjsPath2990" d="M 0 0L 29.21355096670674 0L 29.21355096670674 36L 0 36Z" stroke="none" fill="url(#SvgjsPattern2991)"></path></g><g id="SvgjsG2993" transform="translate(50.5,159.09891089214761)"><path id="SvgjsPath2994" d="M 0 0L 118 0L 118 608.5686096200811L 0 608.5686096200811Z" stroke="rgba(33,41,48,1)" stroke-width="2" fill-opacity="1" fill="#dbf5f5"></path><g id="SvgjsG2995"><text id="SvgjsText2996" font-family="微软雅黑" text-anchor="middle" font-size="13px" width="98px" fill="#323232" font-weight="400" align="middle" lineHeight="125%" anchor="middle" family="微软雅黑" size="13px" weight="400" font-style="" opacity="1" y="293.65930481004057" transform="rotate(0)"></text></g></g><g id="SvgjsG2997" transform="translate(59.5,163.38321570218818)"><path id="SvgjsPath2998" d="M 0 0L 100 0L 100 42L 0 42Z" stroke="none" fill="none"></path><g id="SvgjsG2999"><text id="SvgjsText3000" font-family="微软雅黑" text-anchor="middle" font-size="14px" width="100px" fill="#323232" font-weight="700" align="middle" lineHeight="125%" anchor="middle" family="微软雅黑" size="14px" weight="700" font-style="" opacity="1" y="9.25" transform="rotate(0)"></text></g></g><g id="SvgjsG3001" transform="translate(595.5,163.58686269937652)"><path id="SvgjsPath3002" d="M 0 0L 118 0L 118 599.5927060056233L 0 599.5927060056233Z" stroke="rgba(33,41,48,1)" stroke-width="2" fill-opacity="1" fill="#dbf5f5"></path><g id="SvgjsG3003"><text id="SvgjsText3004" font-family="微软雅黑" text-anchor="middle" font-size="13px" width="98px" fill="#323232" font-weight="400" align="middle" lineHeight="125%" anchor="middle" family="微软雅黑" size="13px" weight="400" font-style="" opacity="1" y="289.17135300281166" transform="rotate(0)"></text></g></g><g id="SvgjsG3005" transform="translate(315.3336669143589,51.38321570218818)"><path id="SvgjsPath3006" d="M 0 4Q 0 0 4 0L 358.3326661712822 0Q 362.3326661712822 0 362.3326661712822 4L 362.3326661712822 70Q 362.3326661712822 74 358.3326661712822 74L 4 74Q 0 74 0 70Z" stroke-dasharray="10,6,3,6" stroke="rgba(33,41,48,1)" stroke-width="1.5" fill-opacity="1" fill="#efeceb"></path><g id="SvgjsG3007"><text id="SvgjsText3008" font-family="微软雅黑" text-anchor="middle" font-size="13px" width="343px" fill="#323232" font-weight="400" align="middle" lineHeight="125%" anchor="middle" family="微软雅黑" size="13px" weight="400" font-style="" opacity="1" y="26.375" transform="rotate(0)"></text></g></g><g id="SvgjsG3009" transform="translate(163.57582874699523,59.38321570218818)"><path id="SvgjsPath3010" d="M 0 0L 39.84834250600954 0L 39.84834250600954 42L 0 42Z" stroke="none" fill="url(#SvgjsPattern3011)"></path></g><g id="SvgjsG3013" transform="translate(213,92.38321570218818)"><path id="SvgjsPath3014" d="M 0 0L 85 0L 85 36L 0 36Z" stroke="none" fill="none"></path><g id="SvgjsG3015"><text id="SvgjsText3016" font-family="思源宋体" text-anchor="middle" font-size="15px" width="85px" fill="#323232" font-weight="400" align="middle" lineHeight="125%" anchor="middle" family="思源宋体" size="15px" weight="400" font-style="" opacity="1" y="5.625" transform="rotate(0)"><tspan id="SvgjsTspan3017" dy="18.75" x="42.5"><tspan id="SvgjsTspan3018" style="">Android</tspan></tspan></text></g></g><g id="SvgjsG3019" transform="translate(138,92.38321570218818)"><path id="SvgjsPath3020" d="M 0 0L 91 0L 91 36L 0 36Z" stroke="none" fill="none"></path><g id="SvgjsG3021"><text id="SvgjsText3022" font-family="思源宋体" text-anchor="middle" font-size="15px" width="91px" fill="#323232" font-weight="400" align="middle" lineHeight="125%" anchor="middle" family="思源宋体" size="15px" weight="400" font-style="" opacity="1" y="5.625" transform="rotate(0)"><tspan id="SvgjsTspan3023" dy="18.75" x="45.5"><tspan id="SvgjsTspan3024" style="">IOS</tspan></tspan></text></g></g><g id="SvgjsG3025" transform="translate(46,33.7461964714189)"><path id="SvgjsPath3026" d="M 0 0L 85 0L 85 109.27403846153857L 0 109.27403846153857Z" stroke="none" fill="url(#SvgjsPattern3027)"></path></g><g id="SvgjsG3029" transform="translate(25,32.850090254356246)"><path id="SvgjsPath3030" d="M 0 0L 127 0L 127 68L 0 68Z" stroke="none" fill="none"></path><g id="SvgjsG3031"><text id="SvgjsText3032" font-family="微软雅黑" text-anchor="middle" font-size="15px" width="127px" fill="#323232" font-weight="700" align="middle" lineHeight="125%" anchor="middle" family="微软雅黑" size="15px" weight="700" font-style="" opacity="1" y="21.625" transform="rotate(0)"><tspan id="SvgjsTspan3033" dy="18.75" x="63.5"><tspan id="SvgjsTspan3034" style="fill: rgb(86, 146, 48);">SDK</tspan></tspan></text></g></g><g id="SvgjsG3035" transform="translate(446.5,193.88321570218818)"><path id="SvgjsPath3036" d="M 0 0L 100 0L 100 53L 0 53Z" stroke="rgba(33,41,48,1)" stroke-width="2" fill-opacity="1" fill="#c8e6c9"></path><g id="SvgjsG3037"><text id="SvgjsText3038" font-family="微软雅黑" text-anchor="middle" font-size="13px" width="80px" fill="#323232" font-weight="400" align="middle" lineHeight="125%" anchor="middle" family="微软雅黑" size="13px" weight="400" font-style="" opacity="1" y="15.875" transform="rotate(0)"><tspan id="SvgjsTspan3039" dy="16.25" x="50"><tspan id="SvgjsTspan3040" style="">Third party</tspan></tspan></text></g></g><g id="SvgjsG3041" transform="translate(319.25,402.3832157021882)"><path id="SvgjsPath3042" d="M 0 0L 112 0L 112 24L 0 24Z" stroke="rgba(33,41,48,1)" stroke-width="2" fill-opacity="1" fill="#c8e6c9"></path><g id="SvgjsG3043"><text id="SvgjsText3044" font-family="微软雅黑" text-anchor="middle" font-size="13px" width="92px" fill="#323232" font-weight="400" align="middle" lineHeight="125%" anchor="middle" family="微软雅黑" size="13px" weight="400" font-style="" opacity="1" y="1.375" transform="rotate(0)"><tspan id="SvgjsTspan3045" dy="16.25" x="56"><tspan id="SvgjsTspan3046" style="">openim-auth</tspan></tspan></text></g></g><g id="SvgjsG3047" transform="translate(449.5,402.3832157021882)"><path id="SvgjsPath3048" d="M 0 0L 112 0L 112 24L 0 24Z" stroke="rgba(33,41,48,1)" stroke-width="2" fill-opacity="1" fill="#c8e6c9"></path><g id="SvgjsG3049"><text id="SvgjsText3050" font-family="微软雅黑" text-anchor="middle" font-size="13px" width="92px" fill="#323232" font-weight="400" align="middle" lineHeight="125%" anchor="middle" family="微软雅黑" size="13px" weight="400" font-style="" opacity="1" y="1.375" transform="rotate(0)"><tspan id="SvgjsTspan3051" dy="16.25" x="56"><tspan id="SvgjsTspan3052" style="">openim-user</tspan></tspan></text></g></g><g id="SvgjsG3053" transform="translate(199.5,436.96970736977187)"><path id="SvgjsPath3054" d="M 0 0L 112 0L 112 24L 0 24Z" stroke="rgba(33,41,48,1)" stroke-width="2" fill-opacity="1" fill="#c8e6c9"></path><g id="SvgjsG3055"><text id="SvgjsText3056" font-family="微软雅黑" text-anchor="middle" font-size="14px" width="92px" fill="#323232" font-weight="400" align="middle" lineHeight="125%" anchor="middle" family="微软雅黑" size="14px" weight="400" font-style="" opacity="1" y="0.25" transform="rotate(0)"><tspan id="SvgjsTspan3057" dy="17.5" x="56"><tspan id="SvgjsTspan3058" style="">openim-msg</tspan></tspan></text></g></g><g id="SvgjsG3059" transform="translate(319.25,436.96970736977187)"><path id="SvgjsPath3060" d="M 0 0L 112 0L 112 24L 0 24Z" stroke="rgba(33,41,48,1)" stroke-width="2" fill-opacity="1" fill="#c8e6c9"></path><g id="SvgjsG3061"><text id="SvgjsText3062" font-family="微软雅黑" text-anchor="middle" font-size="13px" width="92px" fill="#323232" font-weight="400" align="middle" lineHeight="125%" anchor="middle" family="微软雅黑" size="13px" weight="400" font-style="" opacity="1" y="1.375" transform="rotate(0)"><tspan id="SvgjsTspan3063" dy="16.25" x="56"><tspan id="SvgjsTspan3064" style="">openim-friend</tspan></tspan></text></g></g><g id="SvgjsG3065" transform="translate(63.5,190.88321570218818)"><path id="SvgjsPath3066" d="M 0 0L 78 0L 78 59L 0 59Z" stroke="none" fill="url(#SvgjsPattern3067)"></path></g><g id="SvgjsG3069" transform="translate(199.5,474.3832157021882)"><path id="SvgjsPath3070" d="M 0 0L 112 0L 112 24L 0 24Z" stroke="rgba(33,41,48,1)" stroke-width="2" fill-opacity="1" fill="#c8e6c9"></path><g id="SvgjsG3071"><text id="SvgjsText3072" font-family="微软雅黑" text-anchor="middle" font-size="13px" width="92px" fill="#323232" font-weight="400" align="middle" lineHeight="125%" anchor="middle" family="微软雅黑" size="13px" weight="400" font-style="" opacity="1" y="1.375" transform="rotate(0)"><tspan id="SvgjsTspan3073" dy="16.25" x="56"><tspan id="SvgjsTspan3074" style="">openim-third</tspan></tspan></text></g></g><g id="SvgjsG3075" transform="translate(319.25,474.3832157021882)"><path id="SvgjsPath3076" d="M 0 0L 112 0L 112 24L 0 24Z" stroke="rgba(33,41,48,1)" stroke-width="2" fill-opacity="1" fill="#c8e6c9"></path><g id="SvgjsG3077"><text id="SvgjsText3078" font-family="微软雅黑" text-anchor="middle" font-size="13px" width="92px" fill="#323232" font-weight="400" align="middle" lineHeight="125%" anchor="middle" family="微软雅黑" size="13px" weight="400" font-style="" opacity="1" y="1.375" transform="rotate(0)"><tspan id="SvgjsTspan3079" dy="16.25" x="56"><tspan id="SvgjsTspan3080" style="">conversation</tspan></tspan></text></g></g><g id="SvgjsG3081" transform="translate(449.5,436.96970736977187)"><path id="SvgjsPath3082" d="M 0 0L 112 0L 112 24L 0 24Z" stroke="rgba(33,41,48,1)" stroke-width="2" fill-opacity="1" fill="#c8e6c9"></path><g id="SvgjsG3083"><text id="SvgjsText3084" font-family="微软雅黑" text-anchor="middle" font-size="13px" width="92px" fill="#323232" font-weight="400" align="middle" lineHeight="125%" anchor="middle" family="微软雅黑" size="13px" weight="400" font-style="" opacity="1" y="1.375" transform="rotate(0)"><tspan id="SvgjsTspan3085" dy="16.25" x="56"><tspan id="SvgjsTspan3086" style="">openim-group</tspan></tspan></text></g></g><g id="SvgjsG3087" transform="translate(449.5,474.3832157021882)"><path id="SvgjsPath3088" d="M 0 0L 112 0L 112 24L 0 24Z" stroke="rgba(33,41,48,1)" stroke-width="2" fill-opacity="1" fill="#c8e6c9"></path><g id="SvgjsG3089"><text id="SvgjsText3090" font-family="微软雅黑" text-anchor="middle" font-size="13px" width="92px" fill="#323232" font-weight="400" align="middle" lineHeight="125%" anchor="middle" family="微软雅黑" size="13px" weight="400" font-style="" opacity="1" y="1.375" transform="rotate(0)"><tspan id="SvgjsTspan3091" dy="16.25" x="56"><tspan id="SvgjsTspan3092" style="">seq-manager</tspan></tspan></text></g></g><g id="SvgjsG3093" transform="translate(213,731.3832157021882)"><path id="SvgjsPath3094" d="M 0 0L 127 0L 127 36L 0 36Z" stroke="none" fill="none"></path><g id="SvgjsG3095"><text id="SvgjsText3096" font-family="微软雅黑" text-anchor="middle" font-size="13px" width="127px" fill="#323232" font-weight="400" align="middle" lineHeight="125%" anchor="middle" family="微软雅黑" size="13px" weight="400" font-style="" opacity="1" y="7.375" transform="rotate(0)"><tspan id="SvgjsTspan3097" dy="16.25" x="63.5"><tspan id="SvgjsTspan3098" style="">Mongo</tspan></tspan></text></g></g><g id="SvgjsG3099" transform="translate(224.5,665.7689414625718)"><path id="SvgjsPath3100" d="M 0 0L 62 0L 62 30L 0 30Z" stroke="none" fill="none"></path><g id="SvgjsG3101"><text id="SvgjsText3102" font-family="微软雅黑" text-anchor="middle" font-size="13px" width="62px" fill="#323232" font-weight="400" align="middle" lineHeight="125%" anchor="middle" family="微软雅黑" size="13px" weight="400" font-style="" opacity="1" y="4.375" transform="rotate(0)"><tspan id="SvgjsTspan3103" dy="16.25" x="31"><tspan id="SvgjsTspan3104" style="">Redis</tspan></tspan></text></g></g><g id="SvgjsG3105" transform="translate(185,569.3832157021882)"><path id="SvgjsPath3106" d="M 0 0L 397 0L 397 42L 0 42Z" stroke="rgba(33,41,48,1)" stroke-width="1.5" fill-opacity="1" fill="#ffffff"></path><g id="SvgjsG3107"><text id="SvgjsText3108" font-family="微软雅黑" text-anchor="middle" font-size="13px" width="377px" fill="#323232" font-weight="400" align="middle" lineHeight="125%" anchor="middle" family="微软雅黑" size="13px" weight="400" font-style="" opacity="1" y="10.375" transform="rotate(0)"></text></g></g><g id="SvgjsG3109" transform="translate(190.75,575.3832157021882)"><path id="SvgjsPath3110" d="M 0 0L 382.5 0L 382.5 30L 0 30Z" stroke="rgba(33,41,48,1)" stroke-width="2" fill-opacity="1" fill="#b0e38f"></path><g id="SvgjsG3111"><text id="SvgjsText3112" font-family="微软雅黑" text-anchor="middle" font-size="13px" width="363px" fill="#323232" font-weight="400" align="middle" lineHeight="125%" anchor="middle" family="微软雅黑" size="13px" weight="400" font-style="" opacity="1" y="4.375" transform="rotate(0)"><tspan id="SvgjsTspan3113" dy="16.25" x="191.5"><tspan id="SvgjsTspan3114" style="">openim-msgtransfer</tspan></tspan></text></g></g><g id="SvgjsG3115" transform="translate(516,59.38321570218818)"><path id="SvgjsPath3116" d="M 0 0L 45 0L 45 42L 0 42Z" stroke="none" fill="url(#SvgjsPattern3117)"></path></g><g id="SvgjsG3119" transform="translate(433,59.38321570218818)"><path id="SvgjsPath3120" d="M 0 0L 45 0L 45 42L 0 42Z" stroke="none" fill="url(#SvgjsPattern3121)"></path></g><g id="SvgjsG3123" transform="translate(601,59.38321570218818)"><path id="SvgjsPath3124" d="M 0 0L 45 0L 45 42L 0 42Z" stroke="none" fill="url(#SvgjsPattern3125)"></path></g><g id="SvgjsG3127" transform="translate(336.50000000000006,53.88321570218818)"><path id="SvgjsPath3128" d="M 0 0L 62 0L 62 53L 0 53Z" stroke="none" fill="url(#SvgjsPattern3129)"></path></g><g id="SvgjsG3131" transform="translate(492.5,648.3832157021882)"><path id="SvgjsPath3132" d="M 0 0L 52 0L 52 36L 0 36Z" stroke="none" fill="url(#SvgjsPattern3133)"></path></g><g id="SvgjsG3135" transform="translate(321.44460126508557,648.3832157021882)"><path id="SvgjsPath3136" d="M 0 0L 52 0L 52 36L 0 36Z" stroke="none" fill="url(#SvgjsPattern3137)"></path></g><g id="SvgjsG3139" transform="translate(402.5000000000001,648.3832157021882)"><path id="SvgjsPath3140" d="M 0 0L 52 0L 52 36L 0 36Z" stroke="none" fill="url(#SvgjsPattern3141)"></path></g><g id="SvgjsG3143" transform="translate(417.5,703.3832157021882)"><path id="SvgjsPath3144" d="M 0 0L 52 0L 52 42L 0 42Z" stroke="none" fill="url(#SvgjsPattern3145)"></path></g><g id="SvgjsG3147" transform="translate(398,731.3832157021882)"><path id="SvgjsPath3148" d="M 0 0L 91 0L 91 36L 0 36Z" stroke="none" fill="none"></path><g id="SvgjsG3149"><text id="SvgjsText3150" font-family="微软雅黑" text-anchor="middle" font-size="13px" width="91px" fill="#323232" font-weight="400" align="middle" lineHeight="125%" anchor="middle" family="微软雅黑" size="13px" weight="400" font-style="" opacity="1" y="7.375" transform="rotate(0)"><tspan id="SvgjsTspan3151" dy="16.25" x="45.5"><tspan id="SvgjsTspan3152" style="">Minio</tspan></tspan></text></g></g><g id="SvgjsG3153" transform="translate(76.5,285.34640680795746)"><path id="SvgjsPath3154" d="M 0 0L 52 0L 52 53L 0 53Z" stroke="none" fill="url(#SvgjsPattern3155)"></path></g><g id="SvgjsG3157" transform="translate(57,330.47001243876684)"><path id="SvgjsPath3158" d="M 0 0L 91 0L 91 36L 0 36Z" stroke="none" fill="none"></path><g id="SvgjsG3159"><text id="SvgjsText3160" font-family="Bertha" text-anchor="middle" font-size="18px" width="91px" fill="#323232" font-weight="400" align="middle" lineHeight="125%" anchor="middle" family="Bertha" size="18px" weight="400" font-style="" opacity="1" y="2.25" transform="rotate(0)"><tspan id="SvgjsTspan3161" dy="22.5" x="45.5"><tspan id="SvgjsTspan3162" style="">prometheus</tspan></tspan></text></g></g><g id="SvgjsG3163" transform="translate(66.99999999999997,387.8832157021882)"><path id="SvgjsPath3164" d="M 0 0L 71 0L 71 53L 0 53Z" stroke="none" fill="url(#SvgjsPattern3165)"></path></g><g id="SvgjsG3167" transform="translate(56.99999999999997,439.0585021849547)"><path id="SvgjsPath3168" d="M 0 0L 91 0L 91 36L 0 36Z" stroke="none" fill="none"></path><g id="SvgjsG3169"><text id="SvgjsText3170" font-family="Bertha" text-anchor="middle" font-size="19px" width="91px" fill="#323232" font-weight="400" align="middle" lineHeight="125%" anchor="middle" family="Bertha" size="19px" weight="400" font-style="" opacity="1" y="1.625" transform="rotate(0)"><tspan id="SvgjsTspan3171" dy="23.75" x="45.5"><tspan id="SvgjsTspan3172" style="">grafana</tspan></tspan></text></g></g><g id="SvgjsG3173" transform="translate(615.5,192.76935914459386)"><path id="SvgjsPath3174" d="M 0 0L 78 0L 78 74L 0 74Z" stroke="none" fill="url(#SvgjsPattern3175)"></path></g><g id="SvgjsG3177" transform="translate(612,253.04222500903006)"><path id="SvgjsPath3178" d="M 0 0L 85 0L 85 36L 0 36Z" stroke="none" fill="none"></path><g id="SvgjsG3179"><text id="SvgjsText3180" font-family="Bertha" text-anchor="middle" font-size="19px" width="85px" fill="#323232" font-weight="400" align="middle" lineHeight="125%" anchor="middle" family="Bertha" size="19px" weight="400" font-style="" opacity="1" y="1.625" transform="rotate(0)"><tspan id="SvgjsTspan3181" dy="23.75" x="42.5"><tspan id="SvgjsTspan3182" style="">webhooks</tspan></tspan></text></g></g><g id="SvgjsG3183" transform="translate(71.5,470.88333728156385)"><path id="SvgjsPath3184" d="M 0 0L 62 0L 62 59L 0 59Z" stroke="none" fill="url(#SvgjsPattern3185)"></path></g><g id="SvgjsG3187" transform="translate(60,528.3832157021882)"><path id="SvgjsPath3188" d="M 0 0L 85 0L 85 30L 0 30Z" stroke="none" fill="none"></path><g id="SvgjsG3189"><text id="SvgjsText3190" font-family="Bertha" text-anchor="middle" font-size="18px" width="85px" fill="#323232" font-weight="400" align="middle" lineHeight="125%" anchor="middle" family="Bertha" size="18px" weight="400" font-style="" opacity="1" y="-0.75" transform="rotate(0)"><tspan id="SvgjsTspan3191" dy="22.5" x="42.5"><tspan id="SvgjsTspan3192" style="">kubernetes</tspan></tspan></text></g></g><g id="SvgjsG3193" transform="translate(332.01697716346166,92.38321570218818)"><path id="SvgjsPath3194" d="M 0 0L 85 0L 85 36L 0 36Z" stroke="none" fill="none"></path><g id="SvgjsG3195"><text id="SvgjsText3196" font-family="思源宋体" text-anchor="middle" font-size="13px" width="85px" fill="#323232" font-weight="400" align="middle" lineHeight="125%" anchor="middle" family="思源宋体" size="13px" weight="400" font-style="" opacity="1" y="7.375" transform="rotate(0)"><tspan id="SvgjsTspan3197" dy="16.25" x="42.5"><tspan id="SvgjsTspan3198" style="">React Native</tspan></tspan></text></g></g><g id="SvgjsG3199" transform="translate(413,92.38321570218818)"><path id="SvgjsPath3200" d="M 0 0L 85 0L 85 36L 0 36Z" stroke="none" fill="none"></path><g id="SvgjsG3201"><text id="SvgjsText3202" font-family="思源宋体" text-anchor="middle" font-size="15px" width="85px" fill="#323232" font-weight="400" align="middle" lineHeight="125%" anchor="middle" family="思源宋体" size="15px" weight="400" font-style="" opacity="1" y="5.625" transform="rotate(0)"><tspan id="SvgjsTspan3203" dy="18.75" x="42.5"><tspan id="SvgjsTspan3204" style="">Flutter</tspan></tspan></text></g></g><g id="SvgjsG3205" transform="translate(496,89.38321570218818)"><path id="SvgjsPath3206" d="M 0 0L 85 0L 85 42L 0 42Z" stroke="none" fill="none"></path><g id="SvgjsG3207"><text id="SvgjsText3208" font-family="思源宋体" text-anchor="middle" font-size="15px" width="85px" fill="#323232" font-weight="400" align="middle" lineHeight="125%" anchor="middle" family="思源宋体" size="15px" weight="400" font-style="" opacity="1" y="8.625" transform="rotate(0)"><tspan id="SvgjsTspan3209" dy="18.75" x="42.5"><tspan id="SvgjsTspan3210" style="">Unity</tspan></tspan></text></g></g><g id="SvgjsG3211" transform="translate(578,89.38321570218818)"><path id="SvgjsPath3212" d="M 0 0L 91 0L 91 42L 0 42Z" stroke="none" fill="none"></path><g id="SvgjsG3213"><text id="SvgjsText3214" font-family="思源宋体" text-anchor="middle" font-size="15px" width="91px" fill="#323232" font-weight="400" align="middle" lineHeight="125%" anchor="middle" family="思源宋体" size="15px" weight="400" font-style="" opacity="1" y="8.625" transform="rotate(0)"><tspan id="SvgjsTspan3215" dy="18.75" x="45.5"><tspan id="SvgjsTspan3216" style="">JS</tspan></tspan></text></g></g><g id="SvgjsG3217" transform="translate(229.5,53.88321570218818)"><path id="SvgjsPath3218" d="M 0 0L 52 0L 52 53L 0 53Z" stroke="none" fill="url(#SvgjsPattern3219)"></path></g><g id="SvgjsG3221" transform="translate(615.5,481.8154615714409)"><path id="SvgjsPath3222" d="M 0 0L 78 0L 78 68L 0 68Z" stroke="none" fill="url(#SvgjsPattern3223)"></path></g><g id="SvgjsG3225" transform="translate(604.5,535.7839974374581)"><path id="SvgjsPath3226" d="M 0 0L 100 0L 100 36L 0 36Z" stroke="none" fill="none"></path><g id="SvgjsG3227"><text id="SvgjsText3228" font-family="思源宋体" text-anchor="middle" font-size="19px" width="100px" fill="#323232" font-weight="400" align="middle" lineHeight="125%" anchor="middle" family="思源宋体" size="19px" weight="400" font-style="" opacity="1" y="1.625" transform="rotate(0)"><tspan id="SvgjsTspan3229" dy="23.75" x="50"><tspan id="SvgjsTspan3230" style="">S3</tspan></tspan></text></g></g><g id="SvgjsG3231" transform="matrix(0.9848077530122082,-0.17364817766692953,0.17364817766692953,0.9848077530122082,62.416703526892185,678.7772934097221)"><path id="SvgjsPath3232" d="M 0 0L 71 0L 71 59L 0 59Z" stroke="none" fill="url(#SvgjsPattern3233)"></path></g><g id="SvgjsG3235" transform="translate(52.5,728.3832157021882)"><path id="SvgjsPath3236" d="M 0 0L 100 0L 100 42L 0 42Z" stroke="none" fill="none"></path><g id="SvgjsG3237"><text id="SvgjsText3238" font-family="Bertha" text-anchor="middle" font-size="15px" width="100px" fill="#323232" font-weight="400" align="middle" lineHeight="125%" anchor="middle" family="Bertha" size="15px" weight="400" font-style="" opacity="1" y="8.625" transform="rotate(0)"><tspan id="SvgjsTspan3239" dy="18.75" x="50"><tspan id="SvgjsTspan3240" style="">Linux/Mac/Win</tspan></tspan></text></g></g><g id="SvgjsG3241" transform="translate(258.2255802344975,614.3832157021882)"><path id="SvgjsPath3242" d="M 10 0L 247.90973226550256 0C 261.24306559883587 0 261.24306559883587 30 247.90973226550256 30L 10 30C -3.3333333333333335 30 -3.3333333333333335 0 10 0Z" stroke-dasharray="3,4" stroke="rgba(33,41,48,1)" stroke-width="1.5" fill-opacity="1" fill="#ded9d7"></path><g id="SvgjsG3243"><text id="SvgjsText3244" font-family="微软雅黑" text-anchor="middle" font-size="13px" width="238px" fill="#323232" font-weight="700" align="middle" lineHeight="125%" anchor="middle" family="微软雅黑" size="13px" weight="700" font-style="" opacity="1" y="4.375" transform="rotate(0)"><tspan id="SvgjsTspan3245" dy="16.25" x="129"><tspan id="SvgjsTspan3246" style="">Local cache</tspan></tspan></text></g></g><g id="SvgjsG3247" transform="translate(290.00233323317315,611.3832157021882)"><path id="SvgjsPath3248" d="M 0 0L 52 0L 52 36L 0 36Z" stroke="none" fill="url(#SvgjsPattern3249)"></path></g><g id="SvgjsG3251" transform="translate(176.25,516.3832157021882)"><path id="SvgjsPath3252" d="M 0 0L 397 0L 397 42L 0 42Z" stroke="rgba(33,41,48,1)" stroke-width="1.5" fill-opacity="1" fill="#b7eaeb"></path><g id="SvgjsG3253"><text id="SvgjsText3254" font-family="微软雅黑" text-anchor="middle" font-size="13px" width="377px" fill="#323232" font-weight="400" align="middle" lineHeight="125%" anchor="middle" family="微软雅黑" size="13px" weight="400" font-style="" opacity="1" y="10.375" transform="rotate(0)"></text></g></g><g id="SvgjsG3255" transform="translate(455.5,519.3832157021882)"><path id="SvgjsPath3256" d="M 0 0L 100 0L 100 42L 0 42Z" stroke="none" fill="none"></path><g id="SvgjsG3257"><text id="SvgjsText3258" font-family="思源宋体" text-anchor="middle" font-size="18px" width="100px" fill="#323232" font-weight="700" align="middle" lineHeight="125%" anchor="middle" family="思源宋体" size="18px" weight="700" font-style="" opacity="1" y="5.25" transform="rotate(0)"><tspan id="SvgjsTspan3259" dy="22.5" x="50"><tspan id="SvgjsTspan3260" style="">MQ</tspan></tspan></text></g></g><g id="SvgjsG3261" transform="translate(298.25,519.3832157021882)"><path id="SvgjsPath3262" d="M 0 0L 133 0L 133 33.43224586925271L 0 33.43224586925271Z" stroke="none" fill="url(#SvgjsPattern3263)"></path></g><g id="SvgjsG3265" transform="translate(71.5,573.7979346769159)"><path id="SvgjsPath3266" d="M 0 0L 62 0L 62 59L 0 59Z" stroke="none" fill="url(#SvgjsPattern3267)"></path></g><g id="SvgjsG3269" transform="translate(52.5,636.3832157021882)"><path id="SvgjsPath3270" d="M 0 0L 100 0L 100 42L 0 42Z" stroke="none" fill="none"></path><g id="SvgjsG3271"><text id="SvgjsText3272" font-family="Bertha" text-anchor="middle" font-size="15px" width="100px" fill="#323232" font-weight="400" align="middle" lineHeight="125%" anchor="middle" family="Bertha" size="15px" weight="400" font-style="" opacity="1" y="-0.875" transform="rotate(0)"><tspan id="SvgjsTspan3273" dy="18.75" x="50"><tspan id="SvgjsTspan3274" style="">Etcd(zookeeper </tspan></tspan><tspan id="SvgjsTspan3275" dy="18.75" x="50"><tspan id="SvgjsTspan3276" style="">consul)</tspan></tspan></text></g></g><g id="SvgjsG3277" transform="translate(615.5,336.61801370069713)"><path id="SvgjsPath3278" d="M 0 0L 78 0L 78 68L 0 68Z" stroke="none" fill="url(#SvgjsPattern3279)"></path></g><g id="SvgjsG3281" transform="translate(609,396.3832157021882)"><path id="SvgjsPath3282" d="M 0 0L 91 0L 91 36L 0 36Z" stroke="none" fill="none"></path><g id="SvgjsG3283"><text id="SvgjsText3284" font-family="Bertha" text-anchor="middle" font-size="18px" width="91px" fill="#323232" font-weight="400" align="middle" lineHeight="125%" anchor="middle" family="Bertha" size="18px" weight="400" font-style="" opacity="1" y="2.25" transform="rotate(0)"><tspan id="SvgjsTspan3285" dy="22.5" x="45.5"><tspan id="SvgjsTspan3286" style="">RESTful API</tspan></tspan></text></g></g><g id="SvgjsG3287" transform="translate(598.5,610.5271610894988)"><path id="SvgjsPath3288" d="M 0 0L 112 0L 112 93.71210922537864L 0 93.71210922537864Z" stroke="none" fill="url(#SvgjsPattern3289)"></path></g><g id="SvgjsG3291" transform="translate(604.5,699.3832157021882)"><path id="SvgjsPath3292" d="M 0 0L 100 0L 100 36L 0 36Z" stroke="none" fill="none"></path><g id="SvgjsG3293"><text id="SvgjsText3294" font-family="Bertha" text-anchor="middle" font-size="21px" width="100px" fill="#323232" font-weight="400" align="middle" lineHeight="125%" anchor="middle" family="Bertha" size="21px" weight="400" font-style="" opacity="1" y="-0.625" transform="rotate(0)"><tspan id="SvgjsTspan3295" dy="26.25" x="50"><tspan id="SvgjsTspan3296" style="">firebase</tspan></tspan></text></g></g><g id="SvgjsG3297" transform="translate(604.5,163.38321570218818)"><path id="SvgjsPath3298" d="M 0 0L 100 0L 100 42L 0 42Z" stroke="none" fill="none"></path><g id="SvgjsG3299"><text id="SvgjsText3300" font-family="微软雅黑" text-anchor="middle" font-size="13px" width="100px" fill="#323232" font-weight="400" align="middle" lineHeight="125%" anchor="middle" family="微软雅黑" size="13px" weight="400" font-style="" opacity="1" y="10.375" transform="rotate(0)"></text></g></g></svg>